<svg id="Capa_1" enable-background="new 0 0 497.1 497.1" height="512" viewBox="0 0 497.1 497.1" width="512" xmlns="http://www.w3.org/2000/svg"><g><circle cx="297.229" cy="174.715" fill="#d5efc8" r="147.4"/><g><path d="m297.1 327.14c-4.142 0-7.5-3.358-7.5-7.5v-84.183c0-4.142 3.358-7.5 7.5-7.5s7.5 3.358 7.5 7.5v84.183c0 4.142-3.358 7.5-7.5 7.5z" fill="#97da7b"/></g><path d="m297.1 264.383-29.813-22.067c-41.749-30.901-41.544-93.431.407-124.057l25.399-18.542c1.993-1.455 4.837-.424 5.421 1.974 2.736 11.243 2.154 22.963-1.413 35.112l14.404 26.619z" fill="#ade194"/><path d="m337.891 78.761-16.786 30.774c-1.44 2.64-3.21 5.087-5.267 7.281l-26.952 28.749c-13.501 14.401-18.188 34.964-12.259 53.794l20.473 65.025 46.711-48.306c36.577-37.826 39.836-96.769 7.653-138.396-3.589-4.643-10.763-4.073-13.573 1.079z" fill="#80d261"/><path d="m212.839 343.193 67.539-37.036c42.761-23.448 95.632-17.574 132.203 14.689l27.55 24.305v27.973l-204.029 62.977-23.263-61.593z" fill="#dc8758"/><g><path d="m495.01 347.745c-4.88-10.56-16.99-15.68-27.97-11.82l-152.1 53.49c.04-.04.07-.07.11-.11 4.87-4.86 7.88-11.59 7.88-19.02 0-9.4-4.82-17.67-12.13-22.48-4.23-2.79-9.31-4.41-14.76-4.41h-71.55-21.03c-9.14-9.14-21.54-14.28-34.47-14.28h-124.506v120.05l50.456-1.28 4.41 3.8c13.56 11.68 30.87 18.1 48.77 18.1h139.89c11.96 0 23.75-2.87 34.37-8.37l162.53-84.17c7.72-4 12.19-11.87 12.19-20.05 0-3.17-.67-6.39-2.09-9.45z" fill="#ffcebf"/></g><path d="m218.592 396.979h77.348c14.853 0 26.893-12.041 26.893-26.893 0-14.853-12.041-26.893-26.893-26.893h-92.58-5.477l5.477 53.787h15.232z" fill="#ffcebf"/><path d="m295.94 375.902h-77.348c-8.412 0-15.232 6.819-15.232 15.232v4.039c0 .998.809 1.806 1.806 1.806h13.425 77.348c14.853 0 26.893-12.041 26.893-26.893 0-3.741-.765-7.302-2.145-10.539-4.099 9.615-13.635 16.355-24.747 16.355z" fill="#ffb09e"/><path d="m492.36 349.537-162.53 84.17c-10.62 5.5-22.41 8.37-34.37 8.37h-139.89c-17.9 0-35.21-6.42-48.77-18.1-2.838-2.445-6.484-3.747-10.229-3.652l-44.637 1.133v-92.342h-7.45v120.05l50.456-1.28 4.41 3.8c13.56 11.68 30.87 18.1 48.77 18.1h139.89c11.96 0 23.75-2.87 34.37-8.37l162.53-84.17c7.72-4 12.19-11.87 12.19-20.05 0-3.123-.643-6.27-2.02-9.289-.852.604-1.766 1.136-2.72 1.63z" fill="#ffb09e"/><g><path d="m70.52 331.985v114c0 .65-.05 1.28-.14 1.9-.92 6.53-6.53 11.56-13.32 11.56h-50.042c-3.876 0-7.018-3.142-7.018-7.018v-126.884c0-3.876 3.142-7.018 7.018-7.018h50.042c6.45 0 11.84 4.53 13.15 10.59.2.92.31 1.88.31 2.87z" fill="#99e6fc"/></g></g></svg>